<svg width="406" height="372" viewBox="0 0 406 372" fill="none" xmlns="http://www.w3.org/2000/svg">
<path d="M157.158 366V228C157.158 218.333 154.325 211 148.658 206C143.325 200.667 136.492 198 128.158 198C122.492 198 117.325 199.167 112.658 201.5C108.325 203.833 104.825 207.333 102.158 212C99.8249 216.333 98.6582 221.667 98.6582 228L60.6582 211C60.6582 191 64.6582 173.833 72.6582 159.5C80.9915 145.167 92.3249 134.167 106.658 126.5C121.325 118.833 138.325 115 157.658 115C177.658 115 194.992 119 209.658 127C224.325 134.667 235.492 145.333 243.158 159C251.158 172.333 255.158 187.833 255.158 205.5V366H157.158ZM0.658204 366V-2.64645e-05H98.6582V366H0.658204ZM351.045 372C335.378 372 322.378 366.667 312.045 356C301.712 345.333 296.545 332.333 296.545 317C296.545 301.333 301.712 288.167 312.045 277.5C322.378 266.833 335.378 261.5 351.045 261.5C366.712 261.5 379.545 266.833 389.545 277.5C399.878 288.167 405.045 301.333 405.045 317C405.045 332.333 399.878 345.333 389.545 356C379.545 366.667 366.712 372 351.045 372Z" fill="#E0E0E0"/>
</svg>
